<svg xmlns="http://www.w3.org/2000/svg" viewBox="0 0 512 512">
  <rect width="512" height="512" rx="116" fill="#1b1916"/>
  <g transform="translate(127.92,101.73) scale(0.8184)" fill="#f4efe7"><path d="M166.2,284.6c2.1,2.8,4.4,5.6,7.0,8.2c28.0,28.0,73.4,28.0,101.4-0.0 c28.0-28.0,28.0-73.4,0-101.4c-18.6-18.6-45.0-24.8-68.8-18.6c-4.0-5.0-7.2-10.7-9.3-17.2 c-1.7-5.3-2.5-10.7-2.6-16.1c9.7-3.4,18.9-9.0,26.8-16.9c28.0-28.0,28.0-73.4,0.0-101.4 C192.7-7.0,147.3-7.0,119.3,21.0c-28.0,28.0-28.0,73.4,0,101.4c15.9,15.9,37.4,22.7,58.2,20.6 c2.8,4.1,5.1,8.6,6.7,13.6c2.6,8.1,3.2,16.4,2.1,24.4c-4.6,2.8-8.9,6.2-13.0,10.2 c-20.0,20.1-25.7,49.1-17.0,74.3c-3.4,6.5-8.3,12.4-14.4,17.2c-5.5,4.3-11.6,7.3-18.0,9.2 c-0.4-0.4-0.8-0.9-1.3-1.3c-28.0-28.0-73.4-28.0-101.4-0.0c-28.0,28.0-28.0,73.4-0.0,101.4 c28.0,28.0,73.4,28.0,101.4-0.0c22.9-22.9,27.0-57.5,12.4-84.6c3.2-5.0,7.2-9.6,12.2-13.4 C152.9,289.6,159.4,286.5,166.2,284.6"/></g>
</svg>