<svg xmlns="http://www.w3.org/2000/svg" viewBox="0 0 512 512">
  <rect width="512" height="512" rx="116" fill="#1b1916"/>
  <g transform="translate(122.78,70.00) scale(0.9007)">
    <path d="M166.2,284.6c2.1,2.8,4.4,5.6,7.0,8.2c28.0,28.0,73.4,28.0,101.4-0.0 c28.0-28.0,28.0-73.4,0-101.4c-18.6-18.6-45.0-24.8-68.8-18.6c-4.0-5.0-7.2-10.7-9.3-17.2 c-1.7-5.3-2.5-10.7-2.6-16.1c9.7-3.4,18.9-9.0,26.8-16.9c28.0-28.0,28.0-73.4,0.0-101.4 C192.7-7.0,147.3-7.0,119.3,21.0c-28.0,28.0-28.0,73.4,0,101.4c15.9,15.9,37.4,22.7,58.2,20.6 c2.8,4.1,5.1,8.6,6.7,13.6c2.6,8.1,3.2,16.4,2.1,24.4c-4.6,2.8-8.9,6.2-13.0,10.2 c-20.0,20.1-25.7,49.1-17.0,74.3c-3.4,6.5-8.3,12.4-14.4,17.2c-5.5,4.3-11.6,7.3-18.0,9.2 c-0.4-0.4-0.8-0.9-1.3-1.3c-28.0-28.0-73.4-28.0-101.4-0.0c-28.0,28.0-28.0,73.4-0.0,101.4 c28.0,28.0,73.4,28.0,101.4-0.0c22.9-22.9,27.0-57.5,12.4-84.6c3.2-5.0,7.2-9.6,12.2-13.4 C152.9,289.6,159.4,286.5,166.2,284.6" fill="#f4efe7"/>
    <path d="M186.1,92.8c0,3.6-0.9,16.7-14.8,16.7s-14.8-13.0-14.8-16.7V48.7 c0-5.4,0.6-18.3,14.8-18.3s14.8,12.8,14.8,18.3v4.8h-11.3c0-10.4-0.2-13.2-3.4-13.2 c-2.8,0-3.4,2.5-3.4,8.4v13.7c1.8-1.1,3.6-1.8,5.6-1.8c11.6,0,12.6,12.0,12.6,16.3V92.8z M171.3,99.6c2.4,0,3.4-2.5,3.4-3.4V73c0-0.9-1.0-3.4-3.4-3.4c-2.4,0-3.3,2.1-3.4,3.1v23.4 C167.8,97.1,168.7,99.6,171.3,99.6z" fill="#1b1916"/>
    <path d="M223.6,263.6h-17.5v-10.0l16.6-50.5h11.3v50.5h5.2v10.0h-5.2v16.8h-10.4 V263.6z M215.7,253.6h7.9v-24.2v-2.3h-0.6l-0.6,2.3L215.7,253.6z" fill="#1b1916"/>
    <path d="M66.6,304.5H77.2v10.6H66.6V304.5z M66.6,382.0v-57.6H77.2v57.6H66.6z" fill="#1b1916"/>
  </g>
</svg>